<svg xmlns="http://www.w3.org/2000/svg" viewBox="0 0 451.68 305.83"><defs><style>.cls-1{fill:#d7e7ff;}.cls-2,.cls-3{fill:#ff4e1f;}.cls-3,.cls-32,.cls-34{stroke:#272f53;stroke-linecap:round;stroke-width:2px;}.cls-14,.cls-29,.cls-3,.cls-32,.cls-34,.cls-36,.cls-37,.cls-39,.cls-6{stroke-miterlimit:10;}.cls-4{fill:#e7f8ff;}.cls-5{fill:#251f36;}.cls-14,.cls-29,.cls-32,.cls-36,.cls-37,.cls-39,.cls-6{fill:none;}.cls-6{stroke:#77a6ff;}.cls-7{fill:#ff9e9d;}.cls-8{fill:#272f53;}.cls-9{fill:#bc77ff;}.cls-10{fill:#aa68ff;}.cls-11{fill:#ffdfd8;}.cls-12{fill:#97e4ff;}.cls-13{fill:#ef8589;}.cls-14{stroke:#5f0fbd;}.cls-15{fill:#5f0fbd;}.cls-16{fill:#1df4d9;}.cls-17{fill:#fafff6;}.cls-18{fill:#252726;}.cls-19{fill:#24335a;}.cls-20{fill:#7e53ff;}.cls-21{fill:#31303e;}.cls-22{fill:#2766ff;}.cls-23{fill:#1dd6d9;}.cls-24{fill:#1dd3d9;}.cls-25{fill:#3fa7ff;}.cls-26{fill:#004d8f;}.cls-27{fill:#5e80e1;}.cls-28{fill:#00f798;}.cls-29{stroke:#ebd9ff;}.cls-30{fill:#3fbdff;}.cls-31{fill:#970fff;}.cls-33,.cls-34{fill:#1b0057;}.cls-35{fill:#6fffaf;}.cls-36{stroke:#d7e7ff;}.cls-37{stroke:#252f52;}.cls-38{fill:#252f52;}.cls-39{stroke:#7e53ff;}.cls-40{fill:#4a5e98;}</style></defs><title>startImg</title><g id="Layer_2" data-name="Layer 2"><g id="Layer_1-2" data-name="Layer 1"><path class="cls-1" d="M50.28,59.16c14.62-5,98.92-2.63,126.19,46.35S248.27,95.28,319,97s89.84,91.1,79.12,135-91.42-13.9-171.14,2.19S-6.91,277.29.24,218.82s81.7-56.17,57.19-98.17S35.67,64.17,50.28,59.16Z"/><path class="cls-2" d="M430.78,34.56,427.6,49.88c-1.58.12-3.21,1-6.25.69a23.51,23.51,0,0,1-8.26-2.91L412,47.05a14.81,14.81,0,0,0-4.23-1.64,11.9,11.9,0,0,0-2.78-.29c-.22,0-.43,0-.64,0a13.34,13.34,0,0,0-8.88,4.73l2.73-15.32a19.12,19.12,0,0,1,8.33-3.78h.12a10.39,10.39,0,0,1,1.68-.13,16,16,0,0,1,1.91.11,10.47,10.47,0,0,1,5.67,2.4c1.63,1.29,2.9,2.7,5.31,3.2a11.58,11.58,0,0,0,2.05.25A12.77,12.77,0,0,0,430.78,34.56Z"/><line class="cls-3" x1="398.16" y1="34.56" x2="393.65" y2="62.48"/><path class="cls-4" d="M112.27,90c1.72-.13-1.81-29.38,28.06-61.24S325.88,70.79,315.59,110.4s-168.52,86.83-214,101.47S112.27,90,112.27,90Z"/><path class="cls-5" d="M217.11,79.17c1.93,14.29,6.62,47.93,8.85,64a8.61,8.61,0,0,1-7.58,9.75l-52.57,5.82a8.6,8.6,0,0,1-6.23-1.75c-7-5.46-25-19.95-26.83-26.72-2.3-8.42,1.31-51.32,2.06-52.59s38-8.68,39.56-9.19c1.13-.38,23.62,2,35.16,3.33A8.59,8.59,0,0,1,217.11,79.17Z"/><path class="cls-6" d="M19.13,239.63S-11.54,222.17,6,199C44,149,12,58.57,124.27,125.37S252.61,155,281.4,120.65s56-45.37,84.86-8.65,44.19,44,44.19,44"/><path class="cls-7" d="M196.8,196.1c-.21.05-2.66.24-6.48.52h0c-10.05.75-29.51,2.09-42.24,3l-12.22.84c-.24-1.43-.42-2.84-.54-4.26-.17-1.77-.25-3.52-.27-5.27a71,71,0,0,1,1.39-14.29,85.57,85.57,0,0,1,2.54-9.73,106.44,106.44,0,0,1,7.34-17.13c.34-.65.69-1.28,1-1.9l.8-1.43a115.59,115.59,0,0,1,12.21-17.59s20.74,15.67,17.31,24.89l-.25.66c-.34.91-.75,2-1.17,3.15-.58,1.61-1.2,3.45-1.75,5.42a49,49,0,0,0-1.18,5.3,33.46,33.46,0,0,0-.47,4.91,25.52,25.52,0,0,0,.25,4.37c1.15,7.85,6.35,15.11,20.58,18C194.66,195.75,195.71,195.94,196.8,196.1Z"/><path class="cls-8" d="M183,164.65a42,42,0,0,1-8.5-1.71,49,49,0,0,0-1.18,5.3,33.46,33.46,0,0,0-.47,4.91,17.47,17.47,0,0,1-2.58-1.74,14.68,14.68,0,0,1-5.31-12.08,21.09,21.09,0,0,1,1-6.13s6.46,2.67,10.32,4.32c1.48.63,2.58,1.11,2.79,1.23a18.46,18.46,0,0,1,3.69,3.47A6,6,0,0,1,183,164.65Z"/><path class="cls-7" d="M213.77,98.4v.23c0,1.53,0,3.18-.07,4.94-.06,2.55-.17,5.35-.33,8.43,0,.7-.08,1.41-.12,2.14,0,.58-.07,1.18-.11,1.79-2.5,39.41-14.47,50.08-30.16,48.72a42,42,0,0,1-8.5-1.71,78.39,78.39,0,0,1-9.54-3.61c-6.09-2.7-12.39-6.13-18.64-9.59-3-1.63-5.89-3.27-8.79-4.84-24.46-13.23-10-76.52,3.43-86.48S175,46.9,175,46.9s43.32,2.36,37.32,33c0,0,1.24,3.68,1.4,15.44v.24C213.77,96.44,213.78,97.4,213.77,98.4Z"/><path class="cls-9" d="M338.28,279.91s-11.31-2.23-23.68-4.63c-14-2.7-29.26-5.6-31.21-5.71-3.68-.2,0-7.09,0-7.09s14.55-23.61,18.38-39c3.71-14.92,48.42-11.53,51.82,4.06a8.1,8.1,0,0,1,.2,1.49C354.56,245.88,338.28,279.91,338.28,279.91Z"/><path class="cls-9" d="M294.36,270.18l-35.28-1.93-62.48-3.43L89.45,259l0,0c-.81-.92-32.55-37.2-18-59.89C74,195,78,191.38,84,188.48A91.23,91.23,0,0,1,98.34,183c3.53-1,7.22-1.93,11-2.69,37.48-7.5,86-1.93,113.47,6.21l1.1.33c1.74.53,3.39,1.06,4.94,1.61C260.66,199.72,281.09,255.89,294.36,270.18Z"/><path class="cls-10" d="M338.28,279.91s-11.31-2.23-23.68-4.63c3.1-3.25,17.94-50.59,17.94-50.59s12.89,1.62,21,2.85a8.1,8.1,0,0,1,.2,1.49C354.56,245.88,338.28,279.91,338.28,279.91Z"/><path class="cls-11" d="M180.82,138.09s5.44,11.12,12.39,2.92Z"/><path class="cls-12" d="M314.77,295.26c-1.06-.41-2.12-.84-3.16-1.28-24.26-10.33-15.83-29.1-15.83-29.1l22.31,6.8,13.84,4.18s19.5,5.63,26.75,17.36a8.53,8.53,0,0,1,.46.76C365.7,305.71,338.4,304.46,314.77,295.26Z"/><path class="cls-8" d="M353.05,226.84c-.4,2.92-5.79,4.77-13.42,5.07a68.86,68.86,0,0,1-11.93-.65,70.84,70.84,0,0,1-9.45-1.95c-8.51-2.38-14.2-6-13.75-9.19s7.47-6.87,16.7-7.6a42.54,42.54,0,0,1,9.31.26,39.92,39.92,0,0,1,15.9,5.71C350.83,221.33,353.37,224.59,353.05,226.84Z"/><path class="cls-13" d="M349,211.87c-.87,2.33-1.74,4.55-2.6,6.62l-.15.35c-2.62,6.29-5.09,11.12-6.63,13.07a68.86,68.86,0,0,1-11.93-.65,70.84,70.84,0,0,1-9.45-1.95l2.95-16.79.07-.41s-7.76-.09-8.52-23.5-9.45-34.9-9.45-34.9,10.31-3.32,13.37,10.91,6.8,14.06,9.87,12.17,5.1-54.37,8.17-59.35,4.84,7.5,4.84,24.5c0,6-.35,12.1-.81,17.43a.61.61,0,0,1,.17-.07,5.19,5.19,0,0,1,4.09.26c9.43,3.76,13.45,5.18,14.43,10.64h0a15.4,15.4,0,0,1,.25,2.41C358.05,183.48,353.71,199.21,349,211.87Z"/><path class="cls-14" d="M338.71,285.71s11.71,6.3,15.11,10.81-.39-1.45-.39-1.45"/><path class="cls-15" d="M314.77,295.26c-7.72-6.47-16.24-14.93-16.64-15.34,1.59.39,37.58,19.3,55.69,14.22a25.87,25.87,0,0,1,4.86-.92,8.53,8.53,0,0,1,.46.76C365.7,305.71,338.4,304.46,314.77,295.26Z"/><circle class="cls-16" cx="340.47" cy="60.81" r="55.53"/><path class="cls-17" d="M187.42,108.27a3.55,3.55,0,0,1-.78,1.79c-1.47,1.87-4.79,2.91-8.47,2.44-4.73-.6-8.26-3.48-7.89-6.42s4.52-4.83,9.25-4.23a4.17,4.17,0,0,1,.49.08C184.52,102.66,187.79,105.43,187.42,108.27Z"/><path class="cls-18" d="M194.62,110.4s5.56,14.8,5.71,16.93-9.43,3.4-9.43,3.4,11.11.79,11.81-1.08"/><path class="cls-19" d="M187.42,108.27a3.55,3.55,0,0,1-.78,1.79,7.38,7.38,0,0,1-4.62.85c-3.39-.44-5.88-2.85-5.55-5.4a4.61,4.61,0,0,1,3.55-3.58C184.52,102.66,187.79,105.43,187.42,108.27Z"/><path class="cls-17" d="M213.7,103.57c-.06,2.55-.17,5.35-.33,8.43,0,.7-.08,1.41-.12,2.14a14.24,14.24,0,0,1-1.93-.11c-4.73-.6-8.26-3.48-7.88-6.42s4.51-4.83,9.24-4.23a2.92,2.92,0,0,1,.5.09Z"/><path class="cls-20" d="M223.92,186.87C168.4,227.45,118.12,198.19,98.34,183c3.53-1,7.22-1.93,11-2.69,37.48-7.5,86-1.93,113.47,6.21Z"/><path class="cls-19" d="M213.7,103.57c-.06,2.55-.17,5.35-.33,8.43-2.42-.9-4-2.89-3.75-5a4.58,4.58,0,0,1,3.56-3.57Z"/><path class="cls-21" d="M169.31,98.33a8.29,8.29,0,0,1,3.71-4,11.51,11.51,0,0,1,5.43-1.48,13.85,13.85,0,0,1,5.44,1,20.46,20.46,0,0,1,2.42,1.25,19.39,19.39,0,0,1,2.09,1.73,20.86,20.86,0,0,1-2.63-.36c-.86-.07-1.67-.24-2.49-.34a33.67,33.67,0,0,0-4.75-.3,20.49,20.49,0,0,0-4.59.65A19.55,19.55,0,0,0,169.31,98.33Z"/><path class="cls-21" d="M213.77,98.4v.23l-.31-.08a19.59,19.59,0,0,0-9.56-.06,8.36,8.36,0,0,1,4.66-2.89,11.8,11.8,0,0,1,5.19-.06C213.77,96.44,213.78,97.4,213.77,98.4Z"/><ellipse class="cls-13" cx="170.25" cy="118.26" rx="4.63" ry="9.03" transform="translate(-8.23 223.69) rotate(-65.35)"/><path class="cls-7" d="M221.38,186.12c-6.48,2.92-14,4.11-22.71,7.52-1.76.69-3.51,1.33-5.23,1.91-1.12.38-2.24.74-3.34,1.07h0c-16,4.87-30.08,5.18-42.24,3a79.61,79.61,0,0,1-12.76-3.42q-3.51-1.26-6.74-2.75a90.72,90.72,0,0,1-20.54-13.12,165.18,165.18,0,0,1,28.4-3.69c4.1-.22,8.25-.3,12.39-.29,8.16,0,16.34.47,24.27,1.21A284.59,284.59,0,0,1,221.38,186.12Z"/><path class="cls-13" d="M148.66,176.79c.8,4.92-5.8,10.38-13.85,14.1a55.88,55.88,0,0,1-6.47,2.52,90.72,90.72,0,0,1-20.54-13.12,165.18,165.18,0,0,1,28.4-3.69,85.57,85.57,0,0,1,2.54-9.73,108.16,108.16,0,0,1,8.37-19l.8-1.43,3.14.32,8.35,3.77s-12.07,15.37-10.81,25.81C148.61,176.47,148.63,176.63,148.66,176.79Z"/><path class="cls-8" d="M217.67,75.7a24.43,24.43,0,0,1-1.16,6,8,8,0,0,1-9,5.44A98.18,98.18,0,0,1,182,78.9c-12.74-6-20.09,6-23.39,13.95a7.93,7.93,0,0,1-7.9,4.85c-3.34-.25-7,.63-7.51,5.46-.87,7.79,4.86,13,10.36,15a7.79,7.79,0,0,1,4.51,4.57c4,10.25,11.84,37.56-19,33-1.94-.29-3.9-.57-5.85-.83-13.25-1.81-26.41-3.09-34.37-3.8a8,8,0,0,1-7.27-8.87,94.8,94.8,0,0,1,9-29.91c5.42-11.33,11.53-23.82,21.51-36.26q1-1.28,2.1-2.55c6.8-8,17-20,31.21-25.86,9.28-3.82,20.28-5,33.18-.78C211.69,54.45,218.28,65.47,217.67,75.7Z"/><path class="cls-8" d="M254.9,256.31c0,12.95-5.47,17.06,6,23.45,2.91,1.62,6-10.5,6-23.45s-1.2-24.93-8-22.17C255.84,235.39,254.9,243.36,254.9,256.31Z"/><path class="cls-7" d="M334.83,285.1c-12.49-3.18-22.58-8.11-23.78-7.56-.6.26,6.08,5.2,10.21,9.11,7.24,6.85,14.05,12.91,18.38,17.36,1.91,2-5.87,3.41-10.95-1.54-.11-.1.44,2.71-1.16,3.09-2,.47-7.78-3.87-8.52-2.11-1.53,3.66-7.59.83-10.85-2.95-5-5.84-10.82-11.21-21.91-16.29a48.2,48.2,0,0,0-11.44-3.48c-10.71-2-16.08-8.9-18.76-15.1,0,0,0,0,0-.05-.11-.24-.21-.47-.3-.7h0c-.14-.33-.26-.66-.38-1a34.9,34.9,0,0,1-1.84-7.62,3,3,0,0,1,1-2.61l.39-.36,1.24-1.14a3,3,0,0,1,2.54-.76c1.44.23,3.88.63,7,1.18,9.47,1.7,25,4.86,36.35,9,5.76,2.08,10.45,4.41,12.69,6.92,9,10.1,43.05,17.7,43.69,18.38S353.55,289.87,334.83,285.1Z"/><path class="cls-13" d="M286.25,284.21a48.2,48.2,0,0,0-11.44-3.48c-10.71-2-16.08-8.9-18.76-15.1,0,0,0,0,0-.05a3,3,0,0,0-.3-.7h0a3.28,3.28,0,0,1-.38-1c-.57-2.21-.59-6.72-.48-10.59l2.32-2.13s3.33.5,8.41,1.41c-.6,3.5,0,9.58,7,17.6C278.63,277.12,283.24,280.85,286.25,284.21Z"/><path class="cls-9" d="M260.93,279.76c.46,1.65-1.53,2.92-5.32,3.83C233.22,289,147.94,282,132,270.18c-18.65-13.83-30.82,5.08-42.54-11.23l0,0c-6.83-9.55-.63-20.06,5.69-27.13a64,64,0,0,1,9-8.32L132,218.82l129.53,14.94s-3.62,18-2.44,34.49A59.15,59.15,0,0,0,260.93,279.76Z"/><path class="cls-13" d="M336.11,285.43c-12.49-3.18-23.86-8.44-25.06-7.89a16.92,16.92,0,0,1-1.62-1.4c-2-2.55-5-8.94-7.48-14.59a86.36,86.36,0,0,1,13.35,6.14c12.86,7.38,42.39,18.48,43,19.16S354.83,290.2,336.11,285.43Z"/><path class="cls-22" d="M390,63.13a2.5,2.5,0,0,0,1.75,3.08l.46.13A54.33,54.33,0,0,1,389.7,78q-.79,2.46-1.82,4.82a51.77,51.77,0,0,1-2.29,4.67A55.52,55.52,0,0,1,281.44,62.66c0-.64,0-1.28,0-1.92,0-1.11,0-2.22.1-3.32a55.46,55.46,0,0,1,3.69-16.89l.27.08A2.5,2.5,0,0,0,287.23,36,55.61,55.61,0,0,1,333,5.36c1.3-.09,2.62-.14,3.95-.14a55.52,55.52,0,0,1,55.52,55.52c0,.19,0,.37,0,.56A2.5,2.5,0,0,0,390,63.13Z"/><ellipse class="cls-23" cx="373.83" cy="74.13" rx="9.38" ry="3.94"/><ellipse class="cls-24" cx="324.66" cy="23.43" rx="7.27" ry="2.49"/><ellipse class="cls-24" cx="342.22" cy="33.55" rx="4.34" ry="2.37"/><ellipse class="cls-24" cx="319.04" cy="35.12" rx="7.25" ry="2.93"/><ellipse class="cls-24" cx="356.26" cy="48.52" rx="7.25" ry="2.93"/><path class="cls-25" d="M393.5,63.2a2.5,2.5,0,0,0,1.75,3.08l.46.13a54.33,54.33,0,0,1-2.47,11.66c-12.7-37.1-38.8-60.44-56.72-72.64,1.3-.09,2.62-.14,4-.14A55.52,55.52,0,0,1,396,60.81c0,.19,0,.37,0,.56A2.5,2.5,0,0,0,393.5,63.2Z"/><path class="cls-26" d="M373.06,44.66c4.77,20.56-15.26,20.9-15.8,35.19s-15.91,22.56-20.48,13,7.68-23.8,8.37-31.15S327.7,50.24,332,40,368.29,24.11,373.06,44.66Z"/><path class="cls-27" d="M311.81,38.5c5,7.49,3.71,14.64,13.92,17.32s-1.28,19.79-14.43,12.64-8.17-19.92-12.38-22.09S306.83,31,311.81,38.5Z"/><path class="cls-28" d="M376.75,43.8C381.52,64.35,361.49,64.69,361,79S345,101.55,340.47,92s7.69-23.8,8.37-31.16-17.45-11.44-13.15-21.65S372,23.24,376.75,43.8Z"/><path class="cls-28" d="M314.1,35.94c5,7.5,3.7,14.64,13.91,17.33s-1.27,19.78-14.42,12.63S305.42,46,301.21,43.82,309.12,28.45,314.1,35.94Z"/><path class="cls-26" d="M370.83,107.3A55.52,55.52,0,0,1,285,62.73c0-.64,0-1.28,0-1.92,0-1.11,0-2.22.1-3.32a55.46,55.46,0,0,1,3.69-16.89l.27.08A2.5,2.5,0,0,0,290.77,36a55.81,55.81,0,0,1,9.51-13.52C301.27,46.58,311.06,87.71,370.83,107.3Z"/><path class="cls-7" d="M357.43,170.2h0c-.3.67-4.21,19.21-7.66,18.4-.79-.18-1-1.22-.89-2.81a19.26,19.26,0,0,1-3.45,6.47c-4.6,5.61-5-3.66-5-3.66-1.39,4.25-5.25,1.36-4.74-9.62a115.62,115.62,0,0,1,3.18-19.69,5.19,5.19,0,0,1,4.09.26C352.43,163.32,356.45,164.74,357.43,170.2Z"/><path class="cls-29" d="M303.3,41.68s4.65,30.79,36.41,51"/><path class="cls-30" d="M446.58,85.09c-.15,4.46-6.39,5.74-8.73,6.22a43.88,43.88,0,0,1-8.45.66c-10,0-24.54-1.78-40.27-4.41-14.9-2.49-30.84-5.73-44.91-8.94C324.84,74.2,303.17,68.57,285,62.73c-15.42-4.93-28.34-10-35.26-14.64-3.53-2.36-5.37-4.5-5.81-6.75a7.82,7.82,0,0,1,2.28-7.72c8.57-7.78,38.35.52,44.23,2.26a2.13,2.13,0,0,1,.35.14q-1.12,2.23-2,4.58c-12.62-3.71-34.18-7.82-39.18-3.28-.52.48-1.08,1.26-.73,3.07,0,.12.34,1.31,3.68,3.54,5.77,3.85,17.23,8.57,32.54,13.56,16.43,5.35,37.29,11,60.29,16.26,16.7,3.81,32.42,6.9,46.09,9.14,21.86,3.57,38.46,5,45.42,3.52,3.1-.63,4.26-1.31,4.65-1.61-1.91-3.66-22.45-11.93-45.78-18.39q.26-2.49.27-5a2.9,2.9,0,0,1,.59.09c.13,0,12.34,3.41,24.37,7.7C443.67,77.28,446.7,81.62,446.58,85.09Z"/><path class="cls-31" d="M451.68,59.16,448.5,74.48c-2.72.2-5.6,2.79-15.64-2.83a13.8,13.8,0,0,0-7-1.93,13.26,13.26,0,0,0-9.52,4.76l2.73-15.32a19.12,19.12,0,0,1,8.33-3.78,11.92,11.92,0,0,1,1.8-.14c7.74,0,8,4.69,12.89,5.71A12.85,12.85,0,0,0,451.68,59.16Z"/><line class="cls-32" x1="419.06" y1="59.16" x2="414.56" y2="87.08"/><path class="cls-33" d="M348.21,39.45,345,54.77c-2.72.2-5.6,2.79-15.64-2.83a13.8,13.8,0,0,0-7-1.93,13.26,13.26,0,0,0-9.52,4.76l2.73-15.32a19.12,19.12,0,0,1,8.33-3.78,11.92,11.92,0,0,1,1.8-.14c7.74,0,8,4.69,12.89,5.71A12.85,12.85,0,0,0,348.21,39.45Z"/><line class="cls-34" x1="315.59" y1="39.45" x2="311.09" y2="67.37"/><path class="cls-35" d="M300.6,3.92l-3.18,15.32c-2.72.2-5.6,2.79-15.64-2.83a13.8,13.8,0,0,0-7-1.93,13.26,13.26,0,0,0-9.52,4.76L268,3.92A19.12,19.12,0,0,1,276.31.14a11.92,11.92,0,0,1,1.8-.14c7.74,0,8,4.69,12.89,5.71A12.85,12.85,0,0,0,300.6,3.92Z"/><line class="cls-32" x1="267.98" y1="3.92" x2="263.48" y2="31.84"/><path class="cls-29" d="M112.58,223.48s7.13-6.08,19.41-4.66l129.54,14.94"/><path class="cls-29" d="M304.5,220.12s-.05,8.5,27.53,11.83a45.07,45.07,0,0,0,18.47-2.23"/><path class="cls-36" d="M260.7,238.57s-3.55,23.18-1.22,33.76"/><path class="cls-37" d="M326.71,187.07s6.47,2.81,5.79,13.83"/><line class="cls-37" x1="344.33" y1="166.14" x2="341.35" y2="184.69"/><line class="cls-37" x1="350.5" y1="167.25" x2="348.92" y2="182.9"/><path class="cls-38" d="M349,211.87c-.87,2.33-1.74,4.55-2.6,6.62l-.15.35-11.43-4.94s.31.06.85.12C337.9,214.29,344,214.69,349,211.87Z"/><path class="cls-5" d="M133.28,154.93c-13.25-1.81-26.41-3.09-34.37-3.8a8,8,0,0,1-7.27-8.87,94.8,94.8,0,0,1,9-29.91c5.42-11.33,11.53-23.82,21.51-36.26-8.72,20.35-17,46.39-7.89,52.73C123.08,134.94,129.87,146.16,133.28,154.93Z"/><path class="cls-39" d="M105.18,193.93s-9.83.89-6.39,10.46"/><path class="cls-39" d="M205.52,201.88s6-3.06,8.26,6"/><path class="cls-39" d="M230.71,200.9s9,1.15,9.87,8.13"/><path class="cls-10" d="M255.61,283.59C233.22,289,147.94,282,132,270.18c-18.65-13.83-30.82,5.08-42.54-11.23l0,0c-.81-.92-32.55-37.2-18-59.89,4.17,9.82,11.87,24.26,23.73,32.76.95.69,1.93,1.34,2.94,1.94,17,10.15,67.75,24.87,98.54,31.08a152.31,152.31,0,0,0,18.79,2.87C229,268.49,244.59,275.47,255.61,283.59Z"/><line class="cls-37" x1="307.67" y1="282.35" x2="326.96" y2="301.12"/><line class="cls-37" x1="304.35" y1="286.62" x2="317.98" y2="300.48"/><path class="cls-29" d="M148,84.1s-25,5.76-14.7,27.9"/><path class="cls-40" d="M217.67,75.7c-3.88,4.28-9.28,4.23-15-8.33-7.25-16-28.12-20.06-47.23-19.69,9.28-3.82,20.28-5,33.18-.78C211.69,54.45,218.28,65.47,217.67,75.7Z"/><path class="cls-39" d="M251,235.42s-6.46,30.07,0,39.46"/><line class="cls-39" x1="249.82" y1="241.65" x2="258.69" y2="242.24"/><line class="cls-39" x1="248.86" y1="248.54" x2="257.22" y2="249.2"/><line class="cls-39" x1="248.25" y1="255.45" x2="256.33" y2="256.1"/><line class="cls-39" x1="248.25" y1="263.37" x2="255.35" y2="263.89"/><line class="cls-39" x1="249.53" y1="271.16" x2="256.33" y2="271.16"/><path class="cls-39" d="M302,229.67a16.21,16.21,0,0,0,4.86,4.07c3.23,2,8.37,4.27,16.28,5.89"/><line class="cls-39" x1="309.81" y1="228.39" x2="307.39" y2="233.74"/><line class="cls-39" x1="316.45" y1="231.07" x2="314.01" y2="237.12"/></g></g></svg>